<?xml version="1.0" encoding="utf-8"?>
<!DOCTYPE svg PUBLIC "-//W3C//DTD SVG 1.0//EN" "http://www.w3.org/TR/2001/REC-SVG-20010904/DTD/svg10.dtd">
<svg version="1.0" xmlns="http://www.w3.org/2000/svg" width="335px" height="317px" viewBox="0 0 335 317" preserveAspectRatio="xMidYMid meet">
 <g fill="#0dbfdf">
  <path d="M209 256.1 C 209 279.1 190.4 297.7 167.4 297.7 144.4 297.7 125.7 279.1 125.7 256.1 125.7 233.1 144.4 214.4 167.4 214.4 190.4 214.4 209 233.1 209 256.1 Z M157.5 296.6 "/>
  <path d="M307.5 256.1 C 307.5 274.3 292.8 288.9 274.7 288.9 256.6 288.9 241.9 274.3 241.9 256.1 241.9 238 256.6 223.3 274.7 223.3 292.8 223.3 307.5 238 307.5 256.1 Z M263.6 287.1 "/>
  <path d="M307.5 154.8 C 307.5 172.9 292.8 187.6 274.7 187.6 256.6 187.6 241.9 172.9 241.9 154.8 241.9 136.7 256.6 122 274.7 122 292.8 122 307.5 136.7 307.5 154.8 Z M268 187.1 "/>
  <path d="M80.3 154.7 C 80.3 165.9 71.1 175.1 59.9 175.1 48.6 175.1 39.4 165.9 39.4 154.7 39.4 143.4 48.6 134.2 59.9 134.2 71.1 134.2 80.3 143.4 80.3 154.7 Z M51.5 173.6 "/>
  <path d="M101.6 59.9 C 101.6 82.9 82.9 101.6 59.9 101.6 36.9 101.6 18.2 82.9 18.2 59.9 18.2 36.9 36.9 18.2 59.9 18.2 82.9 18.2 101.6 36.9 101.6 59.9 Z M50.5 100.6 "/>
 </g>
 <g fill="#003579">
  <path d="M101.6 256.2 C 101.6 279.2 82.9 297.9 59.9 297.9 36.8 297.9 18.2 279.2 18.2 256.2 18.2 233.2 36.8 214.5 59.9 214.5 82.9 214.5 101.6 233.2 101.6 256.2 Z M49.3 296.5 "/>
  <path d="M195.6 154.8 C 195.6 170.4 183 183.1 167.3 183.1 151.6 183.1 138.9 170.4 138.9 154.8 138.9 139.1 151.6 126.4 167.3 126.4 183 126.4 195.6 139.1 195.6 154.8 Z M158.9 182.1 "/>
  <path d="M316.3 60 C 316.3 83 297.6 101.6 274.6 101.6 251.6 101.6 233 83 233 60 233 37 251.6 18.4 274.6 18.4 297.6 18.4 316.3 37 316.3 60 Z M266 100.9 "/>
  <path d="M200.1 60 C 200.1 78.1 185.4 92.8 167.3 92.8 149.1 92.8 134.5 78.1 134.5 60 134.5 41.8 149.1 27.2 167.3 27.2 185.4 27.2 200.1 41.8 200.1 60 Z M158.9 91.7 "/>
 </g>
</svg>